<mxfile host="app.diagrams.net" modified="2023-09-12T14:09:09.531Z" agent="Mozilla/5.0 (Windows NT 10.0; Win64; x64) AppleWebKit/537.36 (KHTML, like Gecko) Chrome/116.0.0.0 Safari/537.36" etag="ze-AfZTP29QSm9BfjB1n" version="21.7.4" type="device">
  <diagram name="Página-1" id="BlO6dO7srqel15ab64So">
    <mxGraphModel dx="880" dy="1639" grid="1" gridSize="10" guides="1" tooltips="1" connect="1" arrows="1" fold="1" page="1" pageScale="1" pageWidth="827" pageHeight="1169" math="0" shadow="0">
      <root>
        <mxCell id="0" />
        <mxCell id="1" parent="0" />
        <mxCell id="z0Eh-pNhXtNOzuXniDv_-1" value="escolher opção de empréstimo no sistema" style="rounded=1;whiteSpace=wrap;html=1;arcSize=40;fontColor=#000000;fillColor=#ffffc0;strokeColor=#ff0000;" vertex="1" parent="1">
          <mxGeometry x="30" y="80" width="120" height="60" as="geometry" />
        </mxCell>
        <mxCell id="z0Eh-pNhXtNOzuXniDv_-2" value="" style="edgeStyle=orthogonalEdgeStyle;html=1;verticalAlign=bottom;endArrow=open;endSize=8;strokeColor=#ff0000;rounded=0;entryX=0.592;entryY=-0.075;entryDx=0;entryDy=0;entryPerimeter=0;" edge="1" source="z0Eh-pNhXtNOzuXniDv_-1" parent="1" target="z0Eh-pNhXtNOzuXniDv_-11">
          <mxGeometry relative="1" as="geometry">
            <mxPoint x="150" y="160" as="targetPoint" />
            <Array as="points">
              <mxPoint x="90" y="150" />
              <mxPoint x="191" y="150" />
            </Array>
          </mxGeometry>
        </mxCell>
        <mxCell id="z0Eh-pNhXtNOzuXniDv_-3" value="realizar empréstimo" style="rounded=1;whiteSpace=wrap;html=1;arcSize=40;fontColor=#000000;fillColor=#ffffc0;strokeColor=#ff0000;" vertex="1" parent="1">
          <mxGeometry x="410" y="450" width="120" height="40" as="geometry" />
        </mxCell>
        <mxCell id="z0Eh-pNhXtNOzuXniDv_-4" value="" style="edgeStyle=orthogonalEdgeStyle;html=1;verticalAlign=bottom;endArrow=open;endSize=8;strokeColor=#ff0000;rounded=0;" edge="1" source="z0Eh-pNhXtNOzuXniDv_-3" parent="1">
          <mxGeometry relative="1" as="geometry">
            <mxPoint x="720" y="390" as="targetPoint" />
          </mxGeometry>
        </mxCell>
        <mxCell id="z0Eh-pNhXtNOzuXniDv_-11" value="inserir ISBN do livro e ID do leitor" style="rounded=1;whiteSpace=wrap;html=1;arcSize=40;fontColor=#000000;fillColor=#ffffc0;strokeColor=#ff0000;" vertex="1" parent="1">
          <mxGeometry x="120" y="200" width="120" height="40" as="geometry" />
        </mxCell>
        <mxCell id="z0Eh-pNhXtNOzuXniDv_-12" value="" style="edgeStyle=orthogonalEdgeStyle;html=1;verticalAlign=bottom;endArrow=open;endSize=8;strokeColor=#ff0000;rounded=0;entryX=0;entryY=0.5;entryDx=0;entryDy=0;" edge="1" source="z0Eh-pNhXtNOzuXniDv_-11" parent="1" target="z0Eh-pNhXtNOzuXniDv_-25">
          <mxGeometry relative="1" as="geometry">
            <mxPoint x="180" y="300" as="targetPoint" />
          </mxGeometry>
        </mxCell>
        <mxCell id="z0Eh-pNhXtNOzuXniDv_-19" value="tentar novamente" style="rhombus;whiteSpace=wrap;html=1;fontColor=#000000;fillColor=#ffffc0;strokeColor=#ff0000;" vertex="1" parent="1">
          <mxGeometry x="350" y="50" width="80" height="60" as="geometry" />
        </mxCell>
        <mxCell id="z0Eh-pNhXtNOzuXniDv_-20" value="no" style="edgeStyle=orthogonalEdgeStyle;html=1;align=left;verticalAlign=bottom;endArrow=open;endSize=8;strokeColor=#ff0000;rounded=0;entryX=1;entryY=0.5;entryDx=0;entryDy=0;exitX=0.5;exitY=0;exitDx=0;exitDy=0;" edge="1" source="z0Eh-pNhXtNOzuXniDv_-19" parent="1" target="z0Eh-pNhXtNOzuXniDv_-34">
          <mxGeometry x="-1" relative="1" as="geometry">
            <mxPoint x="530" y="70" as="targetPoint" />
            <mxPoint x="390" y="40" as="sourcePoint" />
            <Array as="points">
              <mxPoint x="390" y="10" />
              <mxPoint x="770" y="10" />
              <mxPoint x="770" y="235" />
            </Array>
          </mxGeometry>
        </mxCell>
        <mxCell id="z0Eh-pNhXtNOzuXniDv_-21" value="yes" style="edgeStyle=orthogonalEdgeStyle;html=1;align=left;verticalAlign=top;endArrow=open;endSize=8;strokeColor=#ff0000;rounded=0;entryX=1;entryY=0.5;entryDx=0;entryDy=0;" edge="1" source="z0Eh-pNhXtNOzuXniDv_-19" parent="1" target="z0Eh-pNhXtNOzuXniDv_-1">
          <mxGeometry x="-1" relative="1" as="geometry">
            <mxPoint x="390" y="150" as="targetPoint" />
            <Array as="points">
              <mxPoint x="150" y="70" />
            </Array>
          </mxGeometry>
        </mxCell>
        <mxCell id="z0Eh-pNhXtNOzuXniDv_-22" value="livro disponível?" style="rhombus;whiteSpace=wrap;html=1;fontColor=#000000;fillColor=#ffffc0;strokeColor=#ff0000;" vertex="1" parent="1">
          <mxGeometry x="300" y="350" width="80" height="70" as="geometry" />
        </mxCell>
        <mxCell id="z0Eh-pNhXtNOzuXniDv_-23" value="no" style="edgeStyle=orthogonalEdgeStyle;html=1;align=left;verticalAlign=bottom;endArrow=open;endSize=8;strokeColor=#ff0000;rounded=0;entryX=0.358;entryY=-0.075;entryDx=0;entryDy=0;entryPerimeter=0;" edge="1" source="z0Eh-pNhXtNOzuXniDv_-22" parent="1" target="z0Eh-pNhXtNOzuXniDv_-32">
          <mxGeometry x="-1" relative="1" as="geometry">
            <mxPoint x="480" y="370" as="targetPoint" />
          </mxGeometry>
        </mxCell>
        <mxCell id="z0Eh-pNhXtNOzuXniDv_-24" value="yes" style="edgeStyle=orthogonalEdgeStyle;html=1;align=left;verticalAlign=top;endArrow=open;endSize=8;strokeColor=#ff0000;rounded=0;entryX=0;entryY=0.75;entryDx=0;entryDy=0;" edge="1" source="z0Eh-pNhXtNOzuXniDv_-22" parent="1" target="z0Eh-pNhXtNOzuXniDv_-3">
          <mxGeometry x="-1" y="-20" relative="1" as="geometry">
            <mxPoint x="340" y="450" as="targetPoint" />
            <Array as="points">
              <mxPoint x="340" y="480" />
            </Array>
            <mxPoint x="20" y="-20" as="offset" />
          </mxGeometry>
        </mxCell>
        <mxCell id="z0Eh-pNhXtNOzuXniDv_-25" value="leitor registrado" style="rhombus;whiteSpace=wrap;html=1;fontColor=#000000;fillColor=#ffffc0;strokeColor=#ff0000;" vertex="1" parent="1">
          <mxGeometry x="320" y="200" width="80" height="60" as="geometry" />
        </mxCell>
        <mxCell id="z0Eh-pNhXtNOzuXniDv_-26" value="no" style="edgeStyle=orthogonalEdgeStyle;html=1;align=left;verticalAlign=bottom;endArrow=open;endSize=8;strokeColor=#ff0000;rounded=0;entryX=0.333;entryY=1.05;entryDx=0;entryDy=0;entryPerimeter=0;" edge="1" source="z0Eh-pNhXtNOzuXniDv_-25" parent="1" target="z0Eh-pNhXtNOzuXniDv_-30">
          <mxGeometry x="-1" relative="1" as="geometry">
            <mxPoint x="500" y="220" as="targetPoint" />
          </mxGeometry>
        </mxCell>
        <mxCell id="z0Eh-pNhXtNOzuXniDv_-27" value="yes" style="edgeStyle=orthogonalEdgeStyle;html=1;align=left;verticalAlign=top;endArrow=open;endSize=8;strokeColor=#ff0000;rounded=0;entryX=0.5;entryY=0;entryDx=0;entryDy=0;" edge="1" source="z0Eh-pNhXtNOzuXniDv_-25" parent="1" target="z0Eh-pNhXtNOzuXniDv_-22">
          <mxGeometry x="-1" relative="1" as="geometry">
            <mxPoint x="360" y="300" as="targetPoint" />
          </mxGeometry>
        </mxCell>
        <mxCell id="z0Eh-pNhXtNOzuXniDv_-28" value="gravar histórico de empréstimo" style="rounded=1;whiteSpace=wrap;html=1;arcSize=40;fontColor=#000000;fillColor=#ffffc0;strokeColor=#ff0000;" vertex="1" parent="1">
          <mxGeometry x="660" y="350" width="120" height="40" as="geometry" />
        </mxCell>
        <mxCell id="z0Eh-pNhXtNOzuXniDv_-29" value="" style="edgeStyle=orthogonalEdgeStyle;html=1;verticalAlign=bottom;endArrow=open;endSize=8;strokeColor=#ff0000;rounded=0;entryX=0.333;entryY=1;entryDx=0;entryDy=0;entryPerimeter=0;" edge="1" source="z0Eh-pNhXtNOzuXniDv_-28" parent="1" target="z0Eh-pNhXtNOzuXniDv_-34">
          <mxGeometry relative="1" as="geometry">
            <mxPoint x="690" y="250" as="targetPoint" />
          </mxGeometry>
        </mxCell>
        <mxCell id="z0Eh-pNhXtNOzuXniDv_-30" value="registrar leitor" style="rounded=1;whiteSpace=wrap;html=1;arcSize=40;fontColor=#000000;fillColor=#ffffc0;strokeColor=#ff0000;" vertex="1" parent="1">
          <mxGeometry x="600" y="110" width="120" height="40" as="geometry" />
        </mxCell>
        <mxCell id="z0Eh-pNhXtNOzuXniDv_-31" value="" style="edgeStyle=orthogonalEdgeStyle;html=1;verticalAlign=bottom;endArrow=open;endSize=8;strokeColor=#ff0000;rounded=0;entryX=1;entryY=0.5;entryDx=0;entryDy=0;" edge="1" source="z0Eh-pNhXtNOzuXniDv_-30" parent="1" target="z0Eh-pNhXtNOzuXniDv_-19">
          <mxGeometry relative="1" as="geometry">
            <mxPoint x="700" y="130" as="targetPoint" />
          </mxGeometry>
        </mxCell>
        <mxCell id="z0Eh-pNhXtNOzuXniDv_-32" value="retornar mensagem" style="rounded=1;whiteSpace=wrap;html=1;arcSize=40;fontColor=#000000;fillColor=#ffffc0;strokeColor=#ff0000;" vertex="1" parent="1">
          <mxGeometry x="100" y="440" width="120" height="40" as="geometry" />
        </mxCell>
        <mxCell id="z0Eh-pNhXtNOzuXniDv_-33" value="" style="edgeStyle=orthogonalEdgeStyle;html=1;verticalAlign=bottom;endArrow=open;endSize=8;strokeColor=#ff0000;rounded=0;entryX=0.5;entryY=1;entryDx=0;entryDy=0;" edge="1" source="z0Eh-pNhXtNOzuXniDv_-32" parent="1" target="z0Eh-pNhXtNOzuXniDv_-19">
          <mxGeometry relative="1" as="geometry">
            <mxPoint x="100" y="420" as="targetPoint" />
            <Array as="points">
              <mxPoint x="280" y="460" />
              <mxPoint x="280" y="110" />
            </Array>
          </mxGeometry>
        </mxCell>
        <mxCell id="z0Eh-pNhXtNOzuXniDv_-34" value="" style="ellipse;html=1;shape=endState;" vertex="1" parent="1">
          <mxGeometry x="670" y="220" width="30" height="30" as="geometry" />
        </mxCell>
        <mxCell id="z0Eh-pNhXtNOzuXniDv_-35" value="" style="ellipse;html=1;shape=startState;" vertex="1" parent="1">
          <mxGeometry x="60" y="-10" width="30" height="30" as="geometry" />
        </mxCell>
        <mxCell id="z0Eh-pNhXtNOzuXniDv_-36" value="" style="edgeStyle=orthogonalEdgeStyle;html=1;verticalAlign=bottom;endArrow=open;endSize=8;strokeColor=#ff0000;rounded=0;" edge="1" source="z0Eh-pNhXtNOzuXniDv_-35" parent="1">
          <mxGeometry relative="1" as="geometry">
            <mxPoint x="75" y="80" as="targetPoint" />
          </mxGeometry>
        </mxCell>
      </root>
    </mxGraphModel>
  </diagram>
</mxfile>
